#!OML:ASF C:\ViconDB\ViconDB\414\Spring2016\042216\male.ASF
:FULLY-SPECIFIED
:DEGREES
914
root 37.9722 17.3918 4.27495 -538.919 44.2402 -177.556
lowerback -0.793822 -1.18582 3.72651
upperback -0.94776 -1.59152 -1.36399
thorax -0.669254 -0.82322 -3.49353
lowerneck 2.72066 11.2872 -2.24226
upperneck 0.681875 15.2246 -6.12755
head 0.102681 7.7032 -1.59715
rclavicle 2.12203e-014 1.15295e-014
rhumerus -31.9829 0.378169 -93.6882
rradius 31.9603
rwrist 26.5393
rhand 8.40536 -22.4494
rfingers 7.12502
rthumb 33.6124 -49.3184
lclavicle 2.12203e-014 1.15295e-014
lhumerus -38.6328 18.6754 79.7444
lradius 30.486
lwrist -12.1708
lhand -13.9069 16.7935
lfingers 7.12502
lthumb 12.2189 46.4166
rfemur -6.01442 15.5841 20.8546
rtibia 26.2011
rfoot -18.4681 -9.17467
rtoes -15.4455
lfemur -12.7006 0.647615 -17.5728
ltibia 30.8808
lfoot -28.8915 -13.4332
ltoes -11.2158
915
root 37.9917 17.3946 4.28434 -539.051 43.9577 -177.71
lowerback -0.826872 -1.17646 3.75192
upperback -0.947504 -1.58014 -1.40737
thorax -0.651466 -0.817371 -3.55346
lowerneck 2.67774 11.2444 -2.0539
upperneck 0.671478 15.1797 -6.29162
head 0.132651 7.68193 -1.6709
rclavicle -5.51627e-015 4.37326e-015
rhumerus -31.8918 0.652328 -93.8002
rradius 31.8724
rwrist 26.5091
rhand 8.29322 -22.6994
rfingers 7.12502
rthumb 33.5058 -49.5915
lclavicle -5.51627e-015 4.37326e-015
lhumerus -38.9248 19.0137 79.5095
lradius 30.6487
lwrist -11.5197
lhand -13.9952 17.0501
lfingers 7.12502
lthumb 12.1337 46.6782
rfemur -5.78178 15.536 20.8351
rtibia 25.9925
rfoot -18.5766 -9.31472
rtoes -15.1123
lfemur -12.6423 0.0614705 -17.689
ltibia 30.8416
lfoot -28.8292 -13.0967
ltoes -11.2816
916
root 38.0089 17.3967 4.30104 -539.036 43.5705 -177.706
lowerback -0.864347 -1.18661 3.84554
upperback -0.938023 -1.59577 -1.35489
thorax -0.62326 -0.825005 -3.55298
lowerneck 2.6204 11.2114 -2.15286
upperneck 0.611163 15.1345 -6.33083
head 0.11791 7.66118 -1.66686
rclavicle -1.43373e-014 0
rhumerus -31.7593 0.87215 -93.7304
rradius 31.7651
rwrist 26.7088
rhand 8.23495 -22.7099
rfingers 7.12502
rthumb 33.4504 -49.614
lclavicle -1.43373e-014 0
lhumerus -39.1534 19.3323 79.455
lradius 30.6679
lwrist -11.264
lhand -14.1038 17.1389
lfingers 7.12502
lthumb 12.029 46.7732
rfemur -5.59753 15.658 20.9753
rtibia 25.7889
rfoot -18.6431 -9.76404
rtoes -14.8246
lfemur -12.6583 -0.871559 -17.6725
ltibia 30.7973
lfoot -28.559 -12.2967
ltoes -10.7543
917
root 38.0269 17.3969 4.31541 -539.072 43.1811 -177.775
lowerback -0.995137 -1.17964 3.91308
upperback -0.883362 -1.59268 -1.35684
thorax -0.495452 -0.820283 -3.59689
lowerneck 2.55475 11.156 -2.11619
upperneck 0.542476 15.0622 -6.42091
head 0.115342 7.62665 -1.69759
rclavicle 8.84095e-014 -8.34896e-015
rhumerus -31.5966 0.998546 -93.6971
rradius 31.7669
rwrist 26.6859
rhand 8.32803 -22.963
rfingers 7.12502
rthumb 33.5389 -49.848
lclavicle 8.84095e-014 -8.34896e-015
lhumerus -39.225 19.4073 79.4778
lradius 30.7341
lwrist -10.6181
lhand -14.308 17.3426
lfingers 7.12502
lthumb 11.8321 46.9883
rfemur -5.38429 15.7263 21.0547
rtibia 25.585
rfoot -18.7401 -10.1634
rtoes -14.5832
lfemur -12.6841 -1.29378 -17.6925
ltibia 30.7746
lfoot -28.4589 -12.2108
ltoes -10.5357
918
root 38.0454 17.3983 4.32702 -539.113 42.8582 -177.817
lowerback -1.10086 -1.17486 3.98559
upperback -0.855571 -1.5914 -1.31635
thorax -0.408377 -0.817593 -3.5988
lowerneck 2.56668 11.1048 -2.10053
upperneck 0.493225 14.9995 -6.5835
head 0.110698 7.59999 -1.7516
rclavicle 5.01931e-015 7.55382e-015
rhumerus -31.4728 1.17804 -93.6088
rradius 31.7026
rwrist 26.613
rhand 8.41302 -22.8185
rfingers 7.12502
rthumb 33.6196 -49.6859
lclavicle 5.01931e-015 7.55382e-015
lhumerus -39.3916 19.604 79.4521
lradius 30.6641
lwrist -10.6704
lhand -14.2453 17.1607
lfingers 7.12502
lthumb 11.8926 46.8029
rfemur -5.15808 15.6749 21.1327
rtibia 25.3669
rfoot -18.8216 -10.3822
rtoes -14.4135
lfemur -12.6881 -1.77961 -17.7009
ltibia 30.7773
lfoot -28.4589 -12.0135
ltoes -10.5446
919
root 38.0647 17.3989 4.34358 -539.098 42.5224 -177.85
lowerback -1.71851 -1.08718 4.2116
upperback -0.443693 -1.50922 -1.44023
thorax 0.359528 -0.752912 -3.87397
lowerneck 2.08902 10.9684 -2.00497
upperneck 0.322921 14.8196 -6.67607
head 0.145089 7.50315 -1.76866
rclavicle -4.68511e-014 -1.47101e-014
rhumerus -30.7032 0.903829 -93.6178
rradius 31.5711
rwrist 26.52
rhand 8.48348 -22.8703
rfingers 7.12502
rthumb 33.6866 -49.7231
lclavicle -4.68511e-014 -1.47101e-014
lhumerus -38.7481 19.0448 79.8316
lradius 30.6756
lwrist -10.3358
lhand -14.2642 17.3219
lfingers 7.12502
lthumb 11.8743 46.9652
rfemur -5.00455 15.746 21.2398
rtibia 25.1823
rfoot -18.9271 -10.7359
rtoes -14.0893
lfemur -12.7693 -1.87039 -17.6602
ltibia 30.7684
lfoot -28.5423 -12.2831
ltoes -11.5851
920
root 38.0816 17.3993 4.35858 -539.153 42.2398 -177.89
lowerback -1.71917 -1.05093 4.31942
upperback -0.448761 -1.46257 -1.46086
thorax 0.35595 -0.729754 -3.95546
lowerneck 2.11529 10.9089 -1.94958
upperneck 0.330048 14.7408 -6.68094
head 0.145246 7.46426 -1.78005
rclavicle 1.04586e-013 3.18055e-015
rhumerus -30.5788 0.765595 -93.5336
rradius 31.4629
rwrist 26.3966
rhand 8.6455 -22.8708
rfingers 7.12502
rthumb 33.8405 -49.6898
lclavicle 1.04586e-013 3.18055e-015
lhumerus -38.7525 18.71 80.0026
lradius 30.294
lwrist -10.2825
lhand -14.4879 17.1952
lfingers 7.12502
lthumb 11.6587 46.8508
rfemur -4.78477 15.9278 21.3661
rtibia 25.0343
rfoot -19.0858 -11.1744
rtoes -13.872
lfemur -12.7451 -2.04704 -17.6443
ltibia 30.7503
lfoot -28.357 -12.2345
ltoes -10.6371
921
root 38.0934 17.4 4.37055 -539.254 41.9568 -178.041
lowerback -1.78665 -1.07323 4.3923
upperback -0.434414 -1.49654 -1.47744
thorax 0.40277 -0.745304 -4.01606
lowerneck 2.1509 10.8759 -1.92774
upperneck 0.31076 14.6996 -6.76839
head 0.140804 7.44657 -1.81298
rclavicle -7.5327e-014 6.75868e-015
rhumerus -30.4718 0.765893 -93.4629
rradius 31.3433
rwrist 26.3818
rhand 8.58529 -22.7895
rfingers 7.12502
rthumb 33.7833 -49.6211
lclavicle -7.5327e-014 6.75868e-015
lhumerus -38.8798 18.9596 79.9139
lradius 30.2031
lwrist -10.9132
lhand -14.2313 17.0934
lfingers 7.12502
lthumb 11.9061 46.7349
rfemur -4.6487 15.8252 21.3186
rtibia 24.888
rfoot -19.2448 -11.3255
rtoes -13.6252
lfemur -12.7513 -2.51079 -17.7504
ltibia 30.7514
lfoot -28.3078 -11.9615
ltoes -10.4308
922
root 38.1117 17.4009 4.3898 -539.422 41.6788 -178.32
lowerback -1.90513 -1.05645 4.18247
upperback -0.393993 -1.47498 -1.50542
thorax 0.517631 -0.730847 -3.92947
lowerneck 2.14941 10.807 -1.8141
upperneck 0.336052 14.6147 -6.84734
head 0.160989 7.4043 -1.85299
rclavicle 9.69075e-015 -7.95139e-016
rhumerus -30.2832 0.525672 -93.3505
rradius 31.247
rwrist 26.4219
rhand 8.61988 -22.7748
rfingers 7.12502
rthumb 33.8162 -49.5992
lclavicle 9.69075e-015 -7.95139e-016
lhumerus -38.8669 18.68 80.1677
lradius 30.0675
lwrist -11.0818
lhand -14.3945 16.9187
lfingers 7.12502
lthumb 11.7487 46.5692
rfemur -4.51309 15.9468 21.2226
rtibia 24.7213
rfoot -19.4031 -11.6963
rtoes -13.3038
lfemur -12.8238 -2.67579 -17.9158
ltibia 30.7814
lfoot -28.2731 -12.0132
ltoes -10.4237
